
<svg xmlns="http://www.w3.org/2000/svg" viewBox="0 0 55 55">
	<style type="text/css">
		.st0{fill:#BDC3C7;}
		.st1{fill:#ECF0F1;}
		.st2{fill:#E74C3C;}
		.st3{fill:#C0392B;}
	</style>
	<path class="st0" d="M10.5,9.3c-2.7,0-4.9,2.2-4.9,4.9v34c0,2.7,2.2,4.9,4.9,4.9h14.6h4.9h14.6c2.7,0,4.9-2.2,4.9-4.9v-34
		c0-2.7-2.2-4.9-4.9-4.9H29.9h-4.9L10.5,9.3L10.5,9.3z"/>
	<path class="st1" d="M10.5,6.9c-2.7,0-4.9,2.2-4.9,4.9v34c0,2.7,2.2,4.9,4.9,4.9h14.6h4.9h14.6c2.7,0,4.9-2.2,4.9-4.9v-34
		c0-2.7-2.2-4.9-4.9-4.9H29.9h-4.9L10.5,6.9L10.5,6.9z"/>
	<path class="st2" d="M10.5,6.9c-2.7,0-4.9,2.2-4.9,4.9V19h43.7v-7.3c0-2.7-2.2-4.9-4.9-4.9H29.9h-4.9L10.5,6.9L10.5,6.9z"/>
	<path class="st3" d="M16.6,12.9c0,2-1.6,3.6-3.6,3.6s-3.6-1.6-3.6-3.6s1.6-3.6,3.6-3.6S16.6,10.9,16.6,12.9z"/>
	<path class="st0" d="M12.9,2c-1.3,0-2.4,1.1-2.4,2.4v7.3c0,1.3,1.1,2.4,2.4,2.4s2.4-1.1,2.4-2.4V4.4C15.4,3.1,14.3,2,12.9,2z"/>
	<path class="st3" d="M45.7,12.9c0,2-1.6,3.6-3.6,3.6c-2,0-3.6-1.6-3.6-3.6s1.6-3.6,3.6-3.6C44.1,9.3,45.7,10.9,45.7,12.9z"/>
	<path class="st0" d="M42.1,2c-1.3,0-2.4,1-2.4,2.4v7.3c0,1.2,1.1,2.4,2.4,2.4c1.3,0,2.4-1.2,2.4-2.4V4.4C44.5,3,43.4,2,42.1,2z"/>
	<path class="st0" d="M10.5,26.3v4.9h4.9v-4.9H10.5z M17.8,26.3v4.9h4.9v-4.9H17.8z M25.1,26.3v4.9h4.9v-4.9H25.1z M32.4,26.3v4.9
		h4.9v-4.9H32.4z M39.6,26.3v4.9h4.9v-4.9H39.6z"/>
	<path class="st0" d="M10.5,33.6v4.9h4.9v-4.9H10.5z M17.8,33.6v4.9h4.9v-4.9H17.8z M25.1,33.6v4.9h4.9v-4.9H25.1z M32.4,33.6v4.9
		h4.9v-4.9H32.4z M39.6,33.6v4.9h4.9v-4.9H39.6z"/>
	<path class="st0" d="M10.5,40.9v4.9h4.9v-4.9H10.5z M17.8,40.9v4.9h4.9v-4.9H17.8z M25.1,40.9v4.9h4.9v-4.9H25.1z M32.4,40.9v4.9
		h4.9v-4.9H32.4z M39.6,40.9v4.9h4.9v-4.9H39.6z"/>
	<rect x="5.6" y="19" class="st3" width="43.7" height="2.4"/>
</svg>
