
<svg xmlns="http://www.w3.org/2000/svg" viewBox="0 0 500 500">
	<style type="text/css">
		.st0{fill:#BDC3C7;}
		.st1{fill:#ECF0F1;}
		.st2{fill:#E74C3C;}
		.st3{fill:#C0392B;}
	</style>
	<path class="st0" d="M108.4,98.3c-22.3,0-40.4,18.2-40.4,40.4v283.1c0,22.2,18.1,40.4,40.4,40.4h121.3h40.4h121.3
		c22.3,0,40.4-18.2,40.4-40.4V138.8c0-22.2-18.1-40.4-40.4-40.4H270.2h-40.4H108.4z"/>
	<path class="st1" d="M108.4,78.1C86.1,78.1,68,96.2,68,118.6v283.1c0,22.3,18.1,40.4,40.4,40.4h121.3h40.4h121.3
		c22.3,0,40.4-18.1,40.4-40.4V118.6c0-22.3-18.1-40.4-40.4-40.4H270.2h-40.4H108.4z"/>
	<path class="st2" d="M108.4,78.1C86.1,78.1,68,96.3,68,118.6v60.7h364v-60.7c0-22.2-18.1-40.4-40.4-40.4H270.2h-40.4H108.4z"/>
	<path class="st3" d="M159,128.7c0,16.8-13.6,30.3-30.3,30.3s-30.3-13.6-30.3-30.3s13.6-30.3,30.3-30.3S159,111.9,159,128.7z"/>
	<path class="st0" d="M128.7,37.7c-11.2,0-20.2,9.1-20.2,20.2v60.7c0,11.2,9.1,20.2,20.2,20.2s20.2-9.1,20.2-20.2V57.9
		C148.9,46.7,139.8,37.7,128.7,37.7z"/>
	<path class="st3" d="M401.7,128.7c0,16.8-13.6,30.3-30.3,30.3c-16.8,0-30.3-13.6-30.3-30.3s13.6-30.3,30.3-30.3
		C388.1,98.3,401.7,111.9,401.7,128.7z"/>
	<path class="st0" d="M371.3,37.7c-11.2,0-20.2,8.1-20.2,20.2v60.7c0,10.1,9.1,20.2,20.2,20.2c11.2,0,20.2-10.1,20.2-20.2V57.9
		C391.6,45.8,382.5,37.7,371.3,37.7z"/>
	<path class="st0" d="M108.4,239.9v40.4h40.4v-40.4H108.4z M169.1,239.9v40.4h40.4v-40.4H169.1z M229.8,239.9v40.4h40.4v-40.4H229.8z
		 M290.4,239.9v40.4h40.4v-40.4H290.4z M351.1,239.9v40.4h40.4v-40.4H351.1z"/>
	<path class="st0" d="M108.4,300.6V341h40.4v-40.4H108.4z M169.1,300.6V341h40.4v-40.4H169.1z M229.8,300.6V341h40.4v-40.4H229.8z
		 M290.4,300.6V341h40.4v-40.4H290.4z M351.1,300.6V341h40.4v-40.4H351.1z"/>
	<path class="st0" d="M108.4,361.2v40.4h40.4v-40.4H108.4z M169.1,361.2v40.4h40.4v-40.4H169.1z M229.8,361.2v40.4h40.4v-40.4H229.8z
		 M290.4,361.2v40.4h40.4v-40.4H290.4z M351.1,361.2v40.4h40.4v-40.4H351.1z"/>
	<rect x="68" y="179.2" class="st3" width="364" height="20.2"/>
</svg>
