
<svg xmlns="http://www.w3.org/2000/svg" viewBox="0 0 55 55">
	<style type="text/css">
		@font-face {
			font-family: 'Roboto-Thin';
			font-style: normal;
			font-weight: 100;
			font-display: swap;
			src: local('Roboto Thin'), local('Roboto-Thin'), url(/res/fonts/Roboto-Thin-latin.woff2) format('woff2');
			unicode-range: U+0000-00FF, U+0131, U+0152-0153, U+02BB-02BC, U+02C6, U+02DA, U+02DC, U+2000-206F, U+2074, U+20AC, U+2122, U+2191, U+2193, U+2212, U+2215, U+FEFF, U+FFFD;
		}
		@font-face {
			font-family: 'Roboto-Bold';
			font-style: normal;
			font-weight: 700;
			font-display: swap;
			src: local('Roboto Bold'), local('Roboto-Bold'), url(/res/fonts/Roboto-Bold-latin.woff2) format('woff2');
			unicode-range: U+0000-00FF, U+0131, U+0152-0153, U+02BB-02BC, U+02C6, U+02DA, U+02DC, U+2000-206F, U+2074, U+20AC, U+2122, U+2191, U+2193, U+2212, U+2215, U+FEFF, U+FFFD;
		}
		
		.st0{fill:#F9F8F7;filter:url(#calendar-dropshadow);}
		.st1{fill:url(#SVGID_1_);}
		.st2{fill:#FFFFFF;font-family:'Roboto-Bold';font-size:10px;}
		.st3{font-family:'Roboto-Thin';font-size:29px;}
	</style>
	<linearGradient id="SVGID_1_" gradientUnits="userSpaceOnUse" x1="27.5" y1="52.9931" x2="27.5" y2="38.3352" gradientTransform="matrix(1 0 0 -1 0 56)">
		<stop  offset="0" style="stop-color:#FF6557"/>
		<stop  offset="1" style="stop-color:#ED4D40"/>
	</linearGradient>
	<filter filterUnits="objectBoundingBox" id="calendar-dropshadow">
		<feOffset dx="0" dy=".175" in="SourceAlpha" result="defappShadowOffsetOuter1"></feOffset>
		<feGaussianBlur stdDeviation=".5" in="defappShadowOffsetOuter1" result="defappShadowBlurOuter1"></feGaussianBlur>
		<feColorMatrix values="0 0 0 0 0   0 0 0 0 0   0 0 0 0 0  0 0 0 0.35 0" type="matrix" in="defappShadowBlurOuter1" result="defappShadowMatrixOuter1"></feColorMatrix>
		<feMerge>
			<feMergeNode in="defappShadowMatrixOuter1"/>
			<feMergeNode in="SourceGraphic"/>
		</feMerge>
	</filter>
	<path class="st0" d="M40.8,52H14.2C8.1,52,3,46.9,3,40.8V14.2C3,8.1,8.1,3,14.2,3h26.5c6.1,0,11.2,5.1,11.2,11.2v26.5 C52,46.9,46.9,52,40.8,52z"/>
	<path class="st1" d="M52,17.6v-3.4C52,8.1,46.9,3,40.8,3H14.2C8.1,3,3,8.1,3,14.2v3.4H52z"/>
	<text transform="matrix(1 0 0 1 -6.5341 13.5521)" class="st2">
		<tspan x="34" text-anchor="middle" dy="0">{{node-manth}}</tspan>
	</text>
	<text transform="matrix(1 0 0 1 -55.4499 44.8135)" class="st3">
		<tspan x="80" text-anchor="middle" dy="0">{{node-date}}</tspan>
	</text>
</svg>
