
<svg xmlns="http://www.w3.org/2000/svg" viewBox="0 0 55 55">
	<style type="text/css">
		.st0{fill:#F9F8F7;filter:url(#calendar-dropshadow);}
		.st1{fill:url(#SVGID_1_);}
		.st2{fill:#FFFFFF;}
		.st3{font-family:'Roboto-Bold';}
		.st4{font-size:10px;}
		.st5{font-family:'Roboto-Light';}
		.st6{font-size:29px;}
	</style>
	<linearGradient id="SVGID_1_" gradientUnits="userSpaceOnUse" x1="27.5" y1="1.934" x2="27.5" y2="17.2312">
		<stop offset="0" style="stop-color:#FF6557"/>
		<stop offset="1" style="stop-color:#ED4D40"/>
	</linearGradient>
	<filter filterUnits="objectBoundingBox" id="calendar-dropshadow">
		<feOffset dx="0" dy=".25" in="SourceAlpha" result="defappShadowOffsetOuter1"></feOffset>
		<feGaussianBlur stdDeviation=".5" in="defappShadowOffsetOuter1" result="defappShadowBlurOuter1"></feGaussianBlur>
		<feColorMatrix values="0 0 0 0 0   0 0 0 0 0   0 0 0 0 0  0 0 0 0.35 0" type="matrix" in="defappShadowBlurOuter1" result="defappShadowMatrixOuter1"></feColorMatrix>
		<feMerge>
			<feMergeNode in="defappShadowMatrixOuter1"/>
			<feMergeNode in="SourceGraphic"/>
		</feMerge>
	</filter>
	<path class="st0" d="M41.4,53.1H13.6c-6.4,0-11.7-5.3-11.7-11.7V13.6c0-6.4,5.3-11.7,11.7-11.7h27.7c6.4,0,11.7,5.3,11.7,11.7v27.7 C53.1,47.8,47.8,53.1,41.4,53.1z"/>
	<path class="st1" d="M53.1,17.2v-3.6c0-6.4-5.3-11.7-11.7-11.7H13.6C7.2,1.9,1.9,7.2,1.9,13.6v3.6H53.1z"/>
	<text transform="matrix(1 0 0 1 18.7084 14.1026)" class="st2 st3 st4">JUL</text>
	<text transform="matrix(1 0 0 1 11.4285 44.814)" class="st5 st6">17</text>
</svg>
