
<svg xmlns="http://www.w3.org/2000/svg" viewBox="0 0 55 55">
	<style type="text/css">
		.st0{fill:#F9F8F7;filter:url(#calendar-dropshadow);}
		.st1{fill:url(#SVGID_1_);}
		.st2{fill:#FFFFFF;}
		.st3{font-family:'Roboto-Bold';}
		.st4{font-size:10px;}
		.st5{font-family:'Roboto-Light';}
		.st6{font-size:29px;}
	</style>
	<linearGradient id="SVGID_1_" gradientUnits="userSpaceOnUse" x1="27.5" y1="52.053" x2="27.5" y2="37.9577" gradientTransform="matrix(1 0 0 -1 0 56)">
		<stop offset="0" style="stop-color:#FF6557"/>
		<stop offset="1" style="stop-color:#ED4D40"/>
	</linearGradient>
	<filter filterUnits="objectBoundingBox" id="calendar-dropshadow">
		<feOffset dx="0" dy=".25" in="SourceAlpha" result="defappShadowOffsetOuter1"></feOffset>
		<feGaussianBlur stdDeviation=".5" in="defappShadowOffsetOuter1" result="defappShadowBlurOuter1"></feGaussianBlur>
		<feColorMatrix values="0 0 0 0 0   0 0 0 0 0   0 0 0 0 0  0 0 0 0.35 0" type="matrix" in="defappShadowBlurOuter1" result="defappShadowMatrixOuter1"></feColorMatrix>
		<feMerge>
			<feMergeNode in="defappShadowMatrixOuter1"/>
			<feMergeNode in="SourceGraphic"/>
		</feMerge>
	</filter>
	<path class="st0" d="M40.3,51.1H14.7c-5.9,0-10.8-4.9-10.8-10.8V14.7c0-5.9,4.9-10.8,10.8-10.8h25.5C46.1,3.9,51,8.8,51,14.7v25.5 C51.1,46.2,46.2,51.1,40.3,51.1z"/>
	<path class="st1" d="M51.1,18v-3.3c0-5.9-4.9-10.8-10.8-10.8H14.7C8.8,3.9,3.9,8.8,3.9,14.7V18H51.1z"/>
	<text transform="matrix(1 0 0 1 18.7083 14.9283)" class="st2 st3 st4">JUL</text>
	<text transform="matrix(1 0 0 1 11.4285 44.814)" class="st5 st6">17</text>
</svg>
