<svg xmlns="http://www.w3.org/2000/svg" width="0" height="0">

	<svg id="icon-chevron-left" viewBox="0 0 500 500">
		<style type="text/css">
			.st0{fill:none;stroke:#333;stroke-width:64;stroke-linecap:round;stroke-linejoin:round;}
		</style>
		<polyline class="st0" points="336.6,58.9 145.8,249.7 338.2,441.1 "/>
	</svg>

	<svg id="icon-chevron-right" viewBox="0 0 500 500">
		<style type="text/css">
			.st0{fill:none;stroke:#333333;stroke-width:64;stroke-linecap:round;stroke-linejoin:round;}
		</style>
		<polyline class="st0" points="163.4,441.1 354.2,250.3 161.8,58.9 "/>
	</svg>

	<svg id="icon-calendar" viewBox="0 0 500 500">
		<path fill="#333" d="M74,442h72v-72H74V442z M162,442h80v-72h-80V442z M74,354h72v-80H74V354z M162,354h80v-80h-80V354z M74,258h72v-72H74V258z  M258,442h80v-72h-80V442z M162,258h80v-72h-80V258z M354,442h72v-72h-72V442z M258,354h80v-80h-80V354z M170,138V66 c0-4.2-3.8-8-8-8h-16c-4.2,0-8,3.8-8,8v72c0,4.2,3.8,8,8,8h16C166.2,146,170,142.2,170,138z M354,354h72v-80h-72V354z M258,258h80 v-72h-80V258z M354,258h72v-72h-72V258z M362,138V66c0-4.2-3.8-8-8-8h-16c-4.2,0-8,3.8-8,8v72c0,4.2,3.8,8,8,8h16 C358.2,146,362,142.2,362,138z M458,122v320c0,17.5-14.5,32-32,32H74c-17.5,0-32-14.5-32-32V122c0-17.5,14.5-32,32-32h32V66 c0-22,18-40,40-40h16c22,0,40,18,40,40v24h96V66c0-22,18-40,40-40h16c22,0,40,18,40,40v24h32C443.5,90,458,104.5,458,122z"/>
	</svg>

</svg>