<svg xmlns="http://www.w3.org/2000/svg" width="0" height="0">

	<svg id="icon-chevron-left" viewBox="0 0 500 500">
		<style type="text/css">
			.st0{fill:none;stroke:#333;stroke-width:64;stroke-linecap:round;stroke-linejoin:round;}
		</style>
		<polyline class="st0" points="336.6,58.9 145.8,249.7 338.2,441.1 "/>
	</svg>

	<svg id="icon-chevron-right" viewBox="0 0 500 500">
		<style type="text/css">
			.st0{fill:none;stroke:#333333;stroke-width:64;stroke-linecap:round;stroke-linejoin:round;}
		</style>
		<polyline class="st0" points="163.4,441.1 354.2,250.3 161.8,58.9 "/>
	</svg>

	<svg id="icon-location-pin" viewBox="0 0 100 100">
		<path fill="#333" d="M50,4.6c-17.6,0-31.8,14.2-31.8,31.8c0,23.8,31.8,59,31.8,59s31.8-35.2,31.8-59C81.8,18.8,67.6,4.6,50,4.6z M27.3,36.4 c0-12.5,10.2-22.7,22.7-22.7s22.7,10.2,22.7,22.7C72.7,49.5,59.6,69,50,81.2C40.6,69.1,27.3,49.3,27.3,36.4z"/>
		<circle fill="#333" cx="50" cy="36.4" r="11.3"/>
	</svg>

	<svg id="icon-bell" viewBox="0 0 100 100">
		<path fill="#333" d="M78.3,72.4V44.1c0-14.5-7.7-26.6-21.3-29.8V11C57.1,7.1,53.9,4,50,4s-7.1,3.2-7.1,7.1v3.2c-13.5,3.2-21.3,15.3-21.3,29.8 v28.3h-9.4v9.4h75.6v-9.4H78.3z M68.9,72.4H31.1V44.1c0-11.7,7.1-21.3,18.9-21.3s18.9,9.5,18.9,21.3V72.4z M50,96 c5.2,0,9.4-4.3,9.4-9.4H40.6C40.6,91.8,44.8,96,50,96z"/>
	</svg>

	<svg id="icon-suitcase" viewBox="0 0 100 100">
		<path fill="#333" d="M85.5,25.6H67.8v-8.9c0-4.9-4-8.9-8.9-8.9H41.1c-4.9,0-8.9,4-8.9,8.9v8.9H14.5c-4.9,0-8.8,4-8.8,8.9l0,48.8 c0,4.9,4,8.9,8.9,8.9h71c4.9,0,8.9-4,8.9-8.9V34.5C94.4,29.5,90.4,25.6,85.5,25.6z M41.1,16.7h17.8v8.9H41.1V16.7z M85.5,83.3h-71 V34.5h71V83.3z"/>
	</svg>

	<svg id="icon-calendar" viewBox="0 0 100 100">
		<path fill="#333" d="M82,13.9h-4v-8h-8v8H30v-8h-8v8h-4c-4.4,0-8,3.6-8,8v64.1c0,4.4,3.6,8,8,8H82c4.4,0,8-3.6,8-8V22 C90.1,17.6,86.5,13.9,82,13.9z M82,86.1H18V34H82V86.1z"/>
		<path fill="#333" d="M68.4,70h-9.8c-1.7,0-3-1.4-3-3v-9.8c0-1.7,1.4-3,3-3h9.8c1.7,0,3,1.4,3,3v9.8C71.4,68.6,70.1,70,68.4,70z"/>
	</svg>

	<svg id="icon-paperclip" viewBox="0 0 100 100">
		<path fill="#333" d="M76.8,33.8v33.5c0,14.8-12,26.8-26.8,26.8s-26.8-12-26.8-26.8V23.7C23.2,13.9,31.6,6,41.7,7c8.7,0.9,15,8.8,15,17.6v42.6 H43.3V23.7c0-1.9-1.5-3.4-3.4-3.4s-3.4,1.5-3.4,3.4v43.6c0,7.4,6,13.4,13.4,13.4s13.4-6,13.4-13.4V33.8H76.8z"/>
	</svg>

	<svg id="icon-user" viewBox="0 0 100 100">
		<path fill="#333" d="M50,50c11,0,19.9-8.9,19.9-19.9S61,10.2,50,10.2s-19.9,8.9-19.9,19.9S39,50,50,50z M50,60c-13.3,0-39.8,6.7-39.8,19.9v10 h79.6v-10C89.8,66.6,63.3,60,50,60z"/>
	</svg>

	<svg id="icon-info" viewBox="0 0 100 100">
		<path fill="#333" d="M50,5.8C25.6,5.8,5.8,25.6,5.8,50S25.6,94.2,50,94.2S94.2,74.4,94.2,50S74.4,5.8,50,5.8z M50,85.4 c-19.5,0-35.4-15.9-35.4-35.4S30.5,14.6,50,14.6S85.4,30.5,85.4,50S69.5,85.4,50,85.4z"/>
		<path fill="#333" d="M55.3,76.5H44.7V44.7h10.6C55.3,44.7,55.3,76.5,55.3,76.5z M55.3,34.1H44.7V23.5h10.6 C55.3,23.5,55.3,34.1,55.3,34.1z"/>
	</svg>

	<svg id="icon-question" viewBox="0 0 100 100">
		<path fill="#333" d="M45.6,76.5h8.8v-8.8h-8.8V76.5z M50,5.8C25.6,5.8,5.8,25.6,5.8,50S25.6,94.2,50,94.2S94.2,74.4,94.2,50S74.4,5.8,50,5.8z  M50,85.4c-19.5,0-35.4-15.9-35.4-35.4S30.5,14.6,50,14.6S85.4,30.5,85.4,50S69.5,85.4,50,85.4z M50,23.5c-9.8,0-17.7,7.9-17.7,17.7 h8.8c0-4.9,4-8.8,8.8-8.8s8.8,4,8.8,8.8c0,8.8-13.3,7.7-13.3,22.1h8.8c0-9.9,13.3-11.1,13.3-22.1C67.7,31.4,59.8,23.5,50,23.5z"/>
	</svg>

	<svg id="icon-plus" viewBox="0 0 100 100">
		<style type="text/css">
			.st0{fill:none;stroke:#333;stroke-width:8;}
		</style>
		<line class="st0" x1="14.1" y1="50" x2="85.9" y2="50"/>
		<line class="st0" x1="50" y1="14.1" x2="50" y2="85.9"/>
	</svg>

</svg>