<svg xmlns="http://www.w3.org/2000/svg" width="0" height="0">

	<svg id="icon-chevron-left" viewBox="0 0 13 13">
		<polygon fill="#333" points="9.2,1.6 8.5,0.8 3.5,5.8 3.5,5.8 2.8,6.5 3.5,7.2 8.5,12.2 9.2,11.4 4.2,6.5 "/>
	</svg>

	<svg id="icon-chevron-right" viewBox="0 0 13 13">
		<polygon fill="#333" points="2.8,11.4 3.5,12.2 8.5,7.2 8.5,7.2 9.2,6.5 8.5,5.8 3.5,0.8 2.8,1.6 7.8,6.5 "/>
	</svg>

	<svg id="icon-location-pin" viewBox="0 0 15 15">
		<path class="st0" d="M7.5,1C5,1,2.9,3,2.9,5.6C2.9,9,7.5,14,7.5,14S12,9,12,5.6C12,3,10,1,7.5,1z M4.2,5.6c0-1.8,1.5-3.2,3.2-3.2
			s3.2,1.5,3.2,3.2c0,1.9-1.9,4.7-3.2,6.4C6.1,10.2,4.2,7.4,4.2,5.6z"/>
		<circle class="st0" cx="7.5" cy="5.6" r="1.6"/>
	</svg>

	<svg id="icon-bell" viewBox="0 0 15 15">
		<path class="st0" d="M11.5,10.7v-4c0-2.1-1.1-3.8-3-4.2V2c0-0.6-0.4-1-1-1s-1,0.5-1,1v0.5c-1.9,0.5-3,2.2-3,4.2v4H2.1V12h10.8v-1.3
			L11.5,10.7L11.5,10.7z M10.2,10.7H4.8v-4c0-1.7,1-3,2.7-3s2.7,1.4,2.7,3V10.7z M7.5,14c0.7,0,1.3-0.6,1.3-1.3H6.2
			C6.2,13.4,6.7,14,7.5,14z"/>
	</svg>

	<svg id="icon-suitcase" viewBox="0 0 15 15">
		<path class="st0" d="M12.7,3.7l-2.4,0V2.4C10.2,1.6,9.6,1,8.9,1H6.1C5.4,1,4.7,1.6,4.7,2.4v1.4l-2.4,0C1.6,3.7,1,4.4,1,5.1v7.5
			C1,13.4,1.6,14,2.4,14h10.3c0.8,0,1.4-0.6,1.4-1.4V5.1C14,4.3,13.4,3.7,12.7,3.7z M6.1,2.4h2.7v1.4H6.1V2.4z M12.7,12.6H2.4V5.1
			h10.3V12.6z"/>
	</svg>

	<svg id="icon-calendar" viewBox="0 0 15 15">
		<path class="st0" d="M12.7,2h-0.7l0-1.1h-1.3l0,1.1H4.2l0-1.1H2.9l0,1.1H2.3C1.6,2,1,2.6,1,3.3v9.4C1,13.4,1.6,14,2.3,14h10.4
			c0.7,0,1.3-0.6,1.3-1.3V3.3C14,2.6,13.4,2,12.7,2z M12.7,12.7H2.3V5h10.4V12.7z"/>
		<path class="st0" d="M10.5,10.1H8.9c-0.3,0-0.5-0.2-0.5-0.5V8c0-0.3,0.2-0.5,0.5-0.5h1.6C10.8,7.6,11,7.8,11,8v1.6
			C11,9.9,10.8,10.1,10.5,10.1z"/>
	</svg>

	<svg id="icon-paperclip" viewBox="0 0 15 15">
		<path class="st0" d="M11.5,5v5c0,2.2-1.8,4-4,4s-4-1.8-4-4V3.5C3.5,2,4.7,0.8,6.3,1c1.3,0.1,2.2,1.3,2.2,2.6V10h-2V3.5
			C6.5,3.2,6.3,3,6,3S5.5,3.2,5.5,3.5V10c0,1.1,0.9,2,2,2s2-0.9,2-2V5H11.5z"/>
	</svg>

	<svg id="icon-user" viewBox="0 0 15 15">
		<path class="st0" d="M7.5,7.5c1.8,0,3.3-1.5,3.3-3.3S9.3,0.9,7.5,0.9S4.2,2.4,4.2,4.2S5.7,7.5,7.5,7.5z M7.5,9.1
			c-2.2,0-6.6,1.1-6.6,3.3v1.6H14v-1.6C14,10.2,9.7,9.1,7.5,9.1z"/>
	</svg>

	<svg id="icon-info" viewBox="0 0 15 15">
		<path class="st0" d="M7.5,1C3.9,1,1,3.9,1,7.5S3.9,14,7.5,14S14,11.1,14,7.5S11.1,1,7.5,1z M7.5,12.7c-2.9,0-5.2-2.3-5.2-5.2
			s2.3-5.2,5.2-5.2s5.2,2.3,5.2,5.2S10.4,12.7,7.5,12.7z"/>
		<path class="st0" d="M8.3,11.4H6.7V6.7h1.6C8.3,6.7,8.3,11.4,8.3,11.4z M8.3,5.2H6.7V3.6h1.6C8.3,3.6,8.3,5.2,8.3,5.2z"/>
	</svg>

	<svg id="icon-question" viewBox="0 0 15 15">
		<path class="st0" d="M6.8,11.4h1.3v-1.3H6.8V11.4z M7.5,1C3.9,1,1,3.9,1,7.5S3.9,14,7.5,14S14,11.1,14,7.5S11.1,1,7.5,1z M7.5,12.7
			c-2.9,0-5.2-2.3-5.2-5.2s2.3-5.2,5.2-5.2s5.2,2.3,5.2,5.2S10.4,12.7,7.5,12.7z M7.5,3.6C6,3.6,4.9,4.8,4.9,6.2h1.3
			c0-0.7,0.6-1.3,1.3-1.3s1.3,0.6,1.3,1.3c0,1.3-2,1.1-2,3.3h1.3c0-1.5,2-1.6,2-3.3C10.1,4.8,8.9,3.6,7.5,3.6z"/>
	</svg>

	<svg id="icon-email" viewBox="0 0 15 15">
		<path d="M12.7,3H2.3C1.6,3,1,3.6,1,4.3l0,6.4C1,11.4,1.6,12,2.3,12h10.3c0.7,0,1.3-0.6,1.3-1.3l0-6.4C14,3.6,13.4,3,12.7,3z
	 		M12.2,4.3L7.5,7.4L2.9,4.3H12.2z M2.3,10.7l0-5.2L7.5,9l5.2-3.4v5.2H2.3z"/>
	</svg>

	<svg id="icon-trashcan" viewBox="0 0 15 15">
		<path d="M9.6,2V1.3H5.4V2H1.8v1.4h0.7v9.2C2.5,13.3,3.2,14,4,14H11c0.8,0,1.4-0.6,1.4-1.4V3.4h0.7V2H9.6z M11,12.6H4V3.4H11V12.6z"/>
		<path d="M5.4,4.8h1.4v6.3H5.4V4.8z M8.2,4.8h1.4v6.3H8.2V4.8z"/>
	</svg>

	<svg id="icon-plus" viewBox="0 0 13 13">
		<rect fill="#333" x="5" y="1" width="2" height="10"/>
		<rect fill="#333" x="1" y="5" width="10" height="2"/>
	</svg>

</svg>